<svg width="14" height="14" viewBox="0 0 14 14" fill="none" xmlns="http://www.w3.org/2000/svg">
<g clip-path="url(#clip0_1614_72)">
<path d="M6.9968 12.5892L2.14013 9.80802V4.1986H2.14695L0.939636 3.49994V10.5L6.9968 14V12.5892Z" fill="#00BE0D"/>
<path d="M6.99696 7.00009L3.36805 4.90411H3.36124V9.10274L6.99696 11.1851V7.00009Z" fill="#00BE0D"/>
<path d="M13.0608 3.49996L6.9968 0L0.939636 3.49996L2.14695 4.19862L6.9968 1.39747L11.8601 4.1918L13.0608 3.49996Z" fill="#1AE421"/>
<path d="M10.6392 4.89731L7.00364 2.80133L3.36792 4.90398L6.99682 6.99995L10.6392 4.89731Z" fill="#1AE421"/>
<path d="M13.0607 3.49994L11.8602 4.19178L10.6392 4.89726L6.99683 6.9999V11.185L11.8602 8.61726V9.80802L6.99683 12.5892V14L13.0608 10.5L13.0607 3.49994Z" fill="#0ACF00"/>
</g>
<defs>
<clipPath id="clip0_1614_72">
<rect width="14" height="14" fill="white"/>
</clipPath>
</defs>
</svg>
