<svg width="12" height="14" viewBox="0 0 12 14" fill="none" xmlns="http://www.w3.org/2000/svg">
<path d="M11.9994 4.11598C11.9993 3.88059 11.9508 3.67258 11.8527 3.49407C11.7563 3.31852 11.6121 3.17138 11.4185 3.05505C9.82099 2.09886 8.22195 1.1456 6.62491 0.188416C6.19436 -0.0695683 5.77693 -0.060171 5.34956 0.201534C4.71371 0.590811 1.53012 2.48411 0.581491 3.05451C0.190776 3.28925 0.000665111 3.64853 0.000591209 4.11556C0 6.03851 0.000591209 7.96139 0 9.88442C7.39012e-05 10.1146 0.0465208 10.3186 0.140264 10.4944C0.236669 10.6753 0.382956 10.8265 0.580937 10.9454C1.52968 11.5158 4.71368 13.409 5.34937 13.7984C5.77693 14.0602 6.19436 14.0696 6.62506 13.8115C8.2221 12.8543 9.82128 11.901 11.4191 10.9449C11.617 10.8259 11.7633 10.6747 11.8597 10.494C11.9534 10.3181 11.9999 10.1141 12 9.88392C12 9.88392 12 6.03897 11.9994 4.11598Z" fill="#9B4993"/>
<path d="M6.01832 6.9812L0.140259 10.4944C0.236663 10.6753 0.38295 10.8265 0.580932 10.9454C1.52968 11.5158 4.71367 13.409 5.34937 13.7983C5.77692 14.0602 6.19435 14.0696 6.62505 13.8115C8.22209 12.8542 9.82128 11.901 11.4191 10.9449C11.617 10.8259 11.7633 10.6746 11.8597 10.4939L6.01832 6.9812Z" fill="#682876"/>
<path d="M4.27731 8.02184C4.61936 8.64168 5.26238 9.05976 5.99999 9.05976C6.74214 9.05976 7.38881 8.63639 7.72913 8.00992L6.01831 6.9812L4.27731 8.02184Z" fill="#682876"/>
<path d="M11.9994 4.11593C11.9993 3.88053 11.9508 3.67253 11.8527 3.49402L6.01834 6.98118L11.8597 10.4939C11.9534 10.3181 11.9999 10.1141 12 9.88386C12 9.88386 12 6.03892 11.9994 4.11593Z" fill="#823085"/>
<path d="M7.72914 8.00997C7.38883 8.63644 6.74215 9.05982 6 9.05982C5.26239 9.05982 4.61938 8.64174 4.27733 8.0219C4.1112 7.72069 4.01564 7.37195 4.01564 6.99997C4.01564 5.86236 4.90408 4.94016 6 4.94016C6.73288 4.94016 7.37246 5.35303 7.71621 5.96654L9.45063 4.92977C8.76125 3.69451 7.47418 2.8634 6 2.8634C3.79908 2.8634 2.01495 4.71544 2.01495 6.99997C2.01495 7.74945 2.20702 8.45229 2.54276 9.05855C3.23041 10.3004 4.52116 11.1366 6 11.1366C7.48154 11.1366 8.77433 10.297 9.46098 9.05153L7.72914 8.00997Z" fill="white"/>
<path d="M9.52664 6.02185H9.92079V8.00357H9.52664V6.02185Z" fill="white"/>
<path d="M10.4011 6.02185H10.7952V8.00357H10.4011V6.02185Z" fill="white"/>
<path d="M9.20636 6.35425H11.1155V6.76336H9.20636V6.35425Z" fill="white"/>
<path d="M9.20636 7.26208H11.1155V7.67123H9.20636V7.26208Z" fill="white"/>
</svg>
