<svg width="2834" height="2577" viewBox="0 0 2834 2577" fill="none" xmlns="http://www.w3.org/2000/svg">
<path d="M1295.33 2576.7C1138.82 2579.17 983.5 2549.14 839.181 2488.53C694.863 2427.92 564.684 2338.03 456.872 2224.55C346.101 2115.11 258.559 1984.44 199.489 1840.37C140.42 1696.29 111.037 1541.78 113.102 1386.08C111.983 1230.52 141.799 1076.28 200.814 932.342C259.83 788.401 346.869 657.628 456.872 547.622C563.626 432.208 693.414 340.482 837.844 278.377C982.273 216.273 1138.13 185.172 1295.33 187.083C1452.31 186.699 1607.7 218.491 1751.91 280.501C1896.12 342.511 2026.09 433.424 2133.8 547.622C2245.69 656.643 2334.53 787.046 2395.03 931.085C2455.53 1075.12 2486.44 1229.86 2485.95 1386.08C2487.41 1542.45 2456.94 1697.47 2396.38 1841.65C2335.83 1985.82 2246.47 2116.12 2133.8 2224.55C2025.07 2336.83 1894.72 2425.92 1750.61 2486.45C1606.51 2546.97 1451.63 2577.67 1295.33 2576.7Z" fill="#042F2E"/>
<path d="M2054.95 1510.17C1982.55 1515.01 1842.05 1520.54 1765.69 1523.34C1764.27 1523.4 1762.86 1523.45 1761.44 1523.5C1743.19 1524.18 1725.5 1524.89 1705.47 1525.68C1657.56 1527.55 1592.07 1530.2 1455.93 1534.23C1416.33 1535.71 1376.7 1537.13 1337.16 1538.47C908.557 1548.03 482.79 1578.07 50.4364 1530.28C44.3692 1528.93 38.7561 1527.47 33.6375 1525.85C31.7752 1525.26 30.3088 1524.77 28.2239 1524.01C25.3479 1522.95 22.6477 1521.82 20.0959 1520.56C15.0131 1518.02 10.4006 1515.17 6.39702 1510.41C1.45952 1504.83 -1.21229 1495.32 1.01414 1487.56C2.97661 1480.63 5.57664 1477.41 8.97586 1473.45C17.1402 1465.01 21.3779 1462.89 28.1397 1458.67C43.6801 1449.86 52.3517 1446.46 67.4384 1440.55C92.2539 1431.11 120.047 1422.97 145.128 1416.4C196.998 1402.89 244.696 1393.67 284.548 1386.76C390.456 1368.88 460.836 1362.01 521.391 1356.3C859.751 1325.28 1205.41 1330.73 1538.76 1406.79C1642.7 1431.16 1745.58 1463.54 1843.39 1507.94C1933.39 1548.88 2018.79 1599.91 2093.91 1665.45C2137.71 1703.3 2175.19 1743.86 2205.82 1784.89C2248.9 1842.44 2277.85 1900.02 2296.75 1949.76C2298.64 1954.7 2300.48 1959.71 2302.27 1964.78C2304.57 1969.57 2301.63 1978.86 2295.64 1981.3C2292.77 1982.75 2289.01 1983.28 2285.32 1982.03C2281.59 1980.8 2278.96 1977.88 2277.82 1975.65C2219.42 1868.82 2167.58 1744.75 2137.05 1648.31C2131.68 1631.66 2126.89 1615.99 2122.66 1601.53C2098.43 1520.7 2079.99 1438.07 2068 1354.48C2067.34 1348.91 2066.71 1343.28 2066.1 1337.5C2058.96 1265.95 2049.6 1177.26 2056.32 1038.13C2059.53 977.602 2066.37 907.451 2080.92 826.023C2090.44 773.569 2097.44 747.07 2102.98 725.416C2104.64 719.052 2106.22 713.093 2107.82 707.063C2113.32 686.394 2118.56 664.472 2125.3 638.699C2134.07 605.291 2145.29 565.286 2164.05 513.833C2225.25 350.442 2260.25 281.853 2283.99 228.848C2291.21 213.381 2297.86 199.457 2304.91 185.293C2316.18 162.648 2330.4 135.647 2345.47 108.412C2346.52 106.308 2349.59 103.06 2353.74 102.332C2357.83 101.58 2361.01 102.894 2363.16 104.433C2367.49 107.31 2369.51 114.053 2367.47 118.828C2356.07 148.434 2344.65 177.404 2334.76 202.048C2318.15 243.599 2287.46 324.146 2263.34 386.395C2254.4 409.556 2241.62 441.328 2226.59 478.013C2210.94 516.211 2192.57 560.402 2172.84 607.502C2122.84 726.501 2094.12 789.207 2071.16 839.263C2064.54 853.604 2058.25 867.116 2052.08 880.246C2032.31 922.338 2007.41 973.642 1980.9 1025.77C1949.39 1087.89 1915.96 1150.21 1890.04 1197.38C1821.79 1318.99 1749.22 1437.87 1676.6 1556.46C1639.35 1617.25 1602.19 1675.57 1574.3 1717.13C1546.15 1759.11 1528.85 1781.95 1526.03 1780.4C1523.34 1778.64 1535.33 1752.61 1559.43 1708.15C1583.27 1664.1 1617.99 1604.24 1654.8 1543.21C1729.03 1420.05 1803.11 1296.68 1872.34 1170.93C1956.91 1017.84 2033.67 860.426 2104.41 700.58C2154.24 588.153 2200.88 475.851 2246.54 361.705C2251.32 349.744 2255.97 338.083 2260.54 326.562C2290.7 248.549 2318.96 173.333 2342.79 109.476C2340.48 114.862 2342.81 122.647 2347.72 125.855C2350.16 127.593 2353.88 129.171 2358.83 128.254C2363.87 127.361 2367.52 123.407 2368.66 121.084C2361.38 134.567 2354.6 147.332 2348.37 159.196C2320.71 211.948 2301.32 250.778 2285.13 284.221C2274 307.278 2264.47 327.752 2255.27 348.751C2250.34 360.027 2243.72 375.413 2235.98 394.152C2204 470.369 2156.1 602.611 2126.5 727.088C2113.02 782.197 2099.99 846.886 2091.26 909.212C2078.4 998.336 2075.07 1082.43 2075.47 1124.79C2075.7 1199.22 2081.39 1284.51 2092.13 1359.2C2102.14 1430.61 2116 1491.81 2125.38 1526.63C2136.54 1567.71 2146.2 1602.92 2163.02 1654.67C2174.72 1690.22 2190.01 1734.01 2214.4 1791.9C2242.87 1858.98 2265.46 1904.77 2285.28 1943.63C2289.14 1951.14 2292.92 1958.4 2296.67 1965.51C2296.04 1964.28 2294.47 1962.5 2292.19 1961.76C2289.94 1961 2287.7 1961.34 2286.03 1962.19C2282.52 1963.58 2280.79 1969.24 2282.11 1971.87C2265.83 1925.43 2249.03 1887.8 2217.95 1838.72C2177.31 1774.68 2122.42 1716.53 2075.02 1675.91C2053.72 1657.4 2027.39 1637 1999.73 1618.13C1962.58 1592.68 1921.84 1569.05 1883.16 1549.09C1851.28 1532.65 1825.09 1520.28 1800.94 1509.52C1793.48 1506.2 1786.05 1502.98 1779.23 1500.1C1753.05 1489.64 1726.28 1479.87 1699 1470.75C1694.51 1469.35 1689.97 1467.97 1685.15 1466.52C1661.05 1459.29 1630.86 1450.79 1593.31 1441.16C1534.33 1426.12 1481.65 1414.47 1425.93 1404.01C1382.44 1395.92 1337.18 1388.65 1284.81 1382.34C1249.16 1378.05 1208.43 1374.11 1167.94 1371.1C1107.98 1366.56 1048.24 1364.14 1007.18 1362.66C991.755 1362.09 978.268 1361.37 965.096 1360.73C965.038 1360.73 964.98 1360.72 964.921 1360.72C964.025 1360.68 963.126 1360.63 962.23 1360.59C861.739 1359.06 760.736 1361.78 660.128 1368.46C651.427 1369.11 642.684 1369.79 634.072 1370.49C591.813 1373.9 549.795 1378.17 523.66 1381.47C493.647 1385.17 420.829 1393.37 344.374 1405.88C294.27 1414.02 243.895 1423.73 200.973 1433.82C177.633 1439.3 152.874 1445.03 130.596 1450.96C121.327 1453.38 107.603 1457.33 97.137 1460.71C91.5996 1462.5 86.6923 1464.15 81.1642 1466.17C74.7961 1468.49 68.8253 1470.85 63.3345 1473.25C53.7715 1477.4 39.0626 1484.64 31.8992 1491.63C29.8855 1493.55 29.1854 1494.99 29.2951 1494.93C29.3259 1494.97 29.6033 1494.08 29.4576 1493.15C29.3471 1492.21 28.8874 1491.57 29.0432 1491.75C28.5001 1491.44 32.9072 1494.6 39.3999 1496.69C43.6385 1498.16 52.5107 1500.92 67.8173 1503.83C78.5897 1505.96 97.476 1508.81 115.951 1510.88C136.855 1513.33 167.458 1515.88 193.301 1517.51C268.806 1521.54 341.779 1522.73 417.573 1523.31C432.765 1523.1 446.278 1522.73 457.089 1522.2C464.847 1521.82 471.52 1521.34 478.421 1520.84C487.866 1520.17 497.607 1519.46 510.117 1518.89C520.046 1518.44 531.913 1518.24 539.954 1518.41C543.696 1518.49 546.583 1518.65 549.208 1518.79C552.215 1518.95 554.907 1519.09 558.202 1519.08C560.579 1519.07 563.056 1518.93 566.112 1518.77C570.995 1518.52 577.354 1518.19 587.135 1518.12C622.824 1517.87 661.911 1517.6 702.623 1517.17C746.109 1516.71 788.807 1516.1 823.86 1515.35C861.336 1514.55 916.881 1513.83 971.336 1512.95C1009.15 1512.34 1047.91 1511.63 1080.74 1510.84C1112.64 1510.08 1146.1 1508.86 1178.69 1507.63C1217.85 1506.14 1254.85 1504.68 1286.81 1504.02C1293.26 1503.89 1301.28 1504.11 1311.35 1504.38C1318.48 1504.57 1326.74 1504.79 1336.02 1504.93C1376.45 1503.55 1416.98 1502.14 1457.47 1500.7C1458.9 1500.58 1460.37 1500.46 1461.84 1500.34C1461.86 1500.34 1461.89 1500.34 1461.91 1500.33C1495.21 1497.56 1540.53 1493.76 1604.54 1492.52C1620.88 1492.21 1631.15 1492.39 1640.4 1492.56C1649.48 1492.73 1657.59 1492.88 1669.42 1492.5C1682.84 1492.07 1698.65 1491.11 1715.81 1490.06C1740.34 1488.56 1767.6 1486.88 1794.78 1486.25C1796.64 1486.21 1798.64 1486.16 1800.71 1486.12C1820.37 1485.65 1849.4 1484.96 1878.91 1484.77C1965.18 1481.33 2050.74 1477.82 2138.09 1474.12C2281.88 1468.04 2426.66 1461.62 2569.4 1454.95C2641.96 1451.55 2703.85 1449.74 2756.49 1449.26C2806.64 1448.92 2836.61 1450.27 2833.2 1453.62C2836.96 1456.56 2807.32 1461.29 2757.42 1466.37C2705.02 1471.58 2643.27 1476.34 2570.72 1480.44C2456.93 1486.87 2341.67 1493.15 2228.57 1499.06C2222.51 1499.42 2216.39 1499.77 2210.27 1500.12C2165.87 1502.67 2125.34 1505.45 2083.04 1508.28C2073.74 1508.91 2064.38 1509.54 2054.95 1510.17Z" fill="white"/>
<path d="M1309.07 757.042C1293.37 729.798 1251.87 694.813 1207.32 675.763C1188.66 667.189 1168.27 662.846 1152.76 661.202C1151.87 661.105 1150.98 661.012 1150.08 660.925C1138.45 659.816 1127.02 659.581 1113.04 660.41C1081.71 662.954 1036.26 667.711 949.264 706.524C924.229 718.214 899.049 731.676 875.572 745.383C617.4 903.279 402.433 1129.61 232.267 1379.46C230.218 1382.61 228.152 1385.81 226.083 1389.04C183.868 1454.07 140.731 1535.65 119.445 1591.19C91.9459 1661.74 84.2469 1709.07 87.9176 1750.15C98.075 1878.61 267.35 1862.69 373.428 1836.43C486.695 1809.49 607.733 1760.18 711.674 1712.92C784.374 1679.68 846.671 1648.71 916.497 1612.27C985.401 1576.14 1035.81 1548.42 1100.41 1511.91C1120.1 1500.58 1139.59 1489.23 1158.72 1477.98C1157.69 1478.59 1157.02 1479.11 1156.07 1480.2C1167.09 1466.69 1177.77 1453.57 1188.09 1440.9C1220.01 1401.71 1248.42 1366.82 1272.06 1338.15C1329.03 1269.06 1394.39 1191.31 1442.92 1133.57C1450.86 1124.13 1458.35 1115.22 1465.27 1106.98C1474.09 1096.3 1482.91 1085.61 1491.73 1074.92C1489.39 1077.64 1488.29 1082.36 1490.44 1086.56C1491.48 1088.66 1493.66 1091.01 1496.87 1092.03C1500.09 1093.09 1503.24 1092.34 1504.87 1091.53C1468.52 1110.37 1437.47 1145.49 1408.56 1178.43C1405.91 1181.29 1403.22 1184.23 1400.47 1187.27C1366.25 1225.13 1328.25 1274.55 1270.63 1354.99C1245.53 1389.99 1216.83 1430.78 1182.77 1478.74C1160.82 1509.63 1148.94 1525.12 1139.24 1537.74C1136.37 1541.47 1133.68 1544.96 1130.99 1548.5C1121.8 1560.57 1112.66 1573.97 1101.93 1589.52C1087.85 1609.87 1071.03 1634.1 1046.46 1664.65C968.327 1761.36 928.79 1801.28 896.334 1828.55C891.23 1832.74 886.425 1836.44 881.741 1839.79C880.778 1840.43 879.426 1841.22 877.258 1841.62C875.147 1842.06 872.043 1841.67 869.849 1840.4C865.389 1837.69 864.706 1834.7 864.15 1832.7C863.338 1828.65 864.217 1824.92 867.192 1821.63C870.446 1818.03 873.639 1814.53 876.844 1811.06C902.055 1783.7 937.787 1747.6 966.953 1719.67C988.322 1699.17 1033.8 1653.68 1069.12 1622.54C1083.85 1609.75 1100.73 1594.92 1126.63 1578.45C1139.75 1571.52 1154.13 1558.87 1179.73 1563.56C1192.99 1567.28 1199.76 1578.18 1204.63 1583.69C1210.06 1589.8 1211.73 1590.62 1217.63 1590.15C1249.92 1581.13 1277.34 1552.96 1297.65 1536.05C1317.32 1518.47 1332.61 1503.7 1347.06 1489.59C1341.79 1495.37 1341.41 1502.67 1348.78 1508.56C1347.86 1507.96 1347.16 1507.67 1346.8 1507.57C1346.52 1507.49 1346.48 1507.53 1346.66 1507.54C1346.83 1507.56 1347.24 1507.53 1347.63 1507.39C1348.01 1507.25 1348.34 1507.03 1348.5 1506.9C1348.66 1506.76 1348.68 1506.71 1348.65 1506.8C1348.39 1507.16 1348.15 1509.26 1348.8 1510.61C1348.69 1516.32 1369.37 1517.89 1388.61 1508.61C1391.99 1507.05 1397.13 1507.11 1400.46 1508.72C1403.88 1510.26 1405.91 1512.44 1407.37 1514.78C1408.79 1517.15 1409.77 1519.92 1409.62 1523.58C1409.55 1527.19 1407.43 1531.72 1404.54 1534.1C1393.65 1543.84 1383.51 1554.96 1376.14 1567.02C1370.47 1575.88 1366.76 1587.62 1367.97 1591.34C1368.05 1591.67 1368.12 1591.75 1368.07 1591.64C1368.03 1591.53 1367.82 1591.23 1367.58 1591.03C1367.34 1590.82 1367.13 1590.73 1367.16 1590.73C1367.2 1590.74 1367.45 1590.81 1367.95 1590.84C1369.92 1591.06 1374.58 1590.07 1378.74 1588.34C1396.63 1580.77 1413.32 1566.25 1426.66 1553.71C1432.96 1547.9 1439.21 1541.72 1445.49 1535.15C1457.23 1524.16 1473.23 1532.46 1473.44 1546.5C1473.12 1565.56 1475.79 1586.21 1484.03 1595.65C1487.98 1599.93 1491.46 1601.06 1497.99 1599.88C1504.35 1598.59 1511.79 1594.19 1517.99 1588.48C1544.66 1564.68 1548.92 1523.14 1513.8 1509.66C1517.98 1512.16 1526.81 1510.53 1529.91 1505.38C1531.65 1502.94 1532.66 1499.63 1532.2 1496.12C1531.77 1492.6 1529.74 1489.64 1528 1488.13C1532.43 1492.15 1536.52 1495.91 1540.83 1499.94C1578.14 1535.61 1613.54 1571.3 1627.62 1610.38C1629.11 1615.43 1630.19 1620.77 1629.58 1626.69C1629.14 1632.53 1625.62 1639.11 1620.9 1642.18C1611.47 1648.09 1604.34 1646.56 1599.1 1646.09C1588.76 1644.37 1584.17 1641.41 1584.36 1639.92C1584.66 1638.26 1590.14 1638.06 1599.16 1636.78C1603.52 1636.09 1609.57 1634.78 1612.43 1631.6C1615.01 1628.99 1614.59 1623.56 1611.29 1616.33C1596.7 1587.19 1560.24 1552.69 1523.51 1518.67C1519.25 1514.78 1515.21 1511.13 1510.83 1507.24C1506.73 1504.39 1505.07 1494.99 1508.95 1490.51C1512.02 1485.49 1520.43 1483.89 1524.69 1486.37C1545.98 1495.2 1566.74 1518.12 1566 1544.54C1565.79 1570.16 1553.34 1591.95 1536.26 1608.26C1527.53 1616.29 1517.09 1623.42 1503.73 1626.48C1490.7 1630.02 1472.67 1625.21 1463.49 1613.94C1445.64 1591.53 1445.99 1568.16 1445.4 1546.27C1445.65 1556.6 1456.98 1562.57 1465.85 1554.47C1456.81 1564.05 1447.8 1572.98 1437.96 1581.68C1426.49 1591.74 1414.35 1601.38 1399.98 1609.24C1392.71 1613.1 1385.1 1616.67 1375.22 1618.31C1370.51 1619.02 1364.47 1619.35 1358.02 1617.16C1351.47 1615.18 1344.7 1608.85 1342.28 1602.4C1335.1 1576.57 1346.88 1562.76 1354.73 1548.83C1363.77 1535.2 1374.52 1523.75 1386.24 1513.33C1383.84 1515.29 1382.02 1519.16 1381.97 1522.13C1381.84 1525.16 1382.63 1527.32 1383.73 1529.18C1384.88 1531.01 1386.45 1532.75 1389.29 1534.04C1392.04 1535.39 1396.47 1535.45 1399.29 1534.15C1382.15 1540.44 1362.44 1549.69 1337.42 1537.15C1325.26 1530.25 1317.82 1514.01 1322.39 1499.32C1324.44 1492.11 1330.65 1483.49 1340.81 1481.07C1350.77 1478.76 1358.77 1482.67 1363.88 1486.05C1372.65 1492.92 1372.25 1502.22 1365.87 1509.09C1342.29 1531.8 1321.11 1551.57 1296.32 1572.02C1278.28 1586.5 1261.24 1600.37 1238.38 1610.62C1235.97 1611.65 1232.08 1613.1 1228.92 1613.95C1225.9 1614.79 1221.87 1615.62 1217.96 1615.82C1210.22 1616.52 1199.8 1613.59 1193.44 1608.23C1181.09 1597.3 1176.97 1588.49 1173.39 1588.07C1165.7 1584.5 1142.64 1597.05 1126.75 1608.57C1109.91 1620.45 1092.67 1634.8 1076.77 1648.68C1070.46 1654.18 1062.54 1661.28 1056.64 1666.67C1003.88 1716.15 953.152 1769.51 917.428 1806.95C906.396 1818.54 896.002 1829.43 886.21 1839.66C889.686 1835.78 890.622 1831.71 889.693 1827.04C889.017 1824.73 888.281 1820.99 882.365 1817.45C879.457 1815.79 875.367 1815.33 872.665 1815.9C869.885 1816.43 868.237 1817.41 867.108 1818.15C882.409 1807.9 895.681 1796.64 906.765 1786.7C920.21 1774.54 931.376 1763.36 942.351 1751.52C948.138 1745.28 956.39 1736.11 965.591 1725.42C1004.39 1681.02 1064.74 1600.78 1118.74 1526.38C1142.78 1493.45 1170.69 1455.04 1197.38 1418.38C1235.51 1365.91 1271.43 1317.3 1289.43 1292.44C1320.74 1249.03 1358.62 1199.64 1394.78 1158.91C1429.68 1119.33 1463.82 1088.25 1488.64 1074.42C1490.84 1073.16 1493 1072 1495.15 1070.95C1497.05 1070 1500.44 1069.23 1503.85 1070.36C1507.26 1071.44 1509.61 1073.95 1510.77 1076.28C1513.16 1080.96 1511.98 1086.32 1509.26 1089.5C1492.41 1110.41 1476.44 1129.23 1453.86 1155.86C1436.36 1176.5 1414.88 1201.82 1385.93 1236.44C1352.51 1276.41 1328.6 1304.47 1308.28 1328.32C1279.68 1361.89 1258.16 1387.15 1227.13 1425.65C1208.82 1448.35 1190.01 1471.53 1172.03 1493.47C1171.02 1494.65 1170.21 1495.28 1169.07 1495.96C1146.08 1509.41 1124.54 1521.72 1105.62 1532.25C1087.15 1542.53 1066.41 1554.15 1045.29 1565.83C1016.77 1581.6 990.422 1595.93 961.397 1611.05C937.151 1623.66 917.447 1633.24 900.25 1641.5C894.886 1644.08 889.77 1646.52 884.846 1648.88C866.604 1658.23 848.719 1667.26 831.193 1675.99C828.397 1677.49 825.472 1679.06 822.428 1680.69C807.93 1688.48 786.927 1699.55 760.659 1712.37C719.551 1732.41 684.989 1747.57 650.158 1762.13C618.921 1775.21 586.585 1788.14 552.534 1801.17C540.893 1805.63 528.707 1810.22 516.462 1814.7C501.915 1820.01 487.077 1825.22 472.881 1829.99C430.77 1844.14 393.178 1854.73 360.976 1861.58C349.817 1863.94 340.478 1865.4 331.465 1866.65C331.425 1866.66 331.385 1866.66 331.345 1866.67C330.734 1866.75 330.121 1866.84 329.513 1866.92C257.138 1878.34 181.688 1890.11 113.126 1843.95C107.476 1839.77 102.234 1835.13 97.5163 1830.16C74.1247 1806.41 65.2181 1771.36 62.7882 1752.89C58.1547 1730.67 61.9544 1672.01 78.929 1619.98C90.5789 1582.03 104.259 1549.57 117.976 1519.73C125.334 1503.77 133.481 1488.63 142.397 1472.88C150.876 1457.91 159.424 1443.52 168.561 1427.77C173.174 1419.83 178.184 1411.15 183.705 1401.83C188.564 1393.63 193.832 1384.91 199.553 1375.79C204.565 1367.8 216.176 1350.2 232.178 1327.42C242.022 1313.4 253.802 1297.07 265.615 1281.18C297.006 1237.77 330.28 1195.24 364.904 1153.88C371.933 1145 377.952 1137.28 382.504 1131.12C385.786 1126.67 388.488 1122.8 391.278 1118.83C395.077 1113.42 399.028 1107.83 404.848 1100.42C409.396 1094.64 415.069 1088.07 419.125 1083.88C421.014 1081.92 422.54 1080.49 423.926 1079.2C425.514 1077.71 426.932 1076.38 428.525 1074.64C429.674 1073.38 430.785 1071.99 432.155 1070.28C434.342 1067.56 437.202 1064.02 441.886 1058.97C459.303 1040.21 479.552 1019.25 499.714 999.161C522.086 976.835 544.758 955.201 562.669 938.394C582.516 919.707 612.689 893.051 642.943 868.143C663.713 850.992 686.19 833.248 704.872 818.949C723.317 804.811 741.996 790.582 761.592 776.403C784.911 759.537 806.099 745.157 826.553 732.819C830.653 730.349 835.946 727.641 842.555 724.356C847.239 722.028 852.616 719.393 858.658 716.395C883.405 701.945 910.238 687.669 936.953 675.361C937.861 674.868 938.797 674.362 939.735 673.858C939.749 673.849 939.764 673.841 939.779 673.832C959.761 663.086 992.516 646.285 1036.87 635.767C1049.22 632.866 1056.94 631.853 1063.85 631.013C1070.62 630.219 1076.62 629.619 1085.19 628.499C1094.79 627.269 1106.41 625.67 1120.03 624.87C1139.11 623.813 1158.18 624.214 1179.77 629.148C1181.19 629.479 1182.71 629.849 1184.29 630.252C1194.65 632.873 1208.12 637.22 1221.62 643.897C1227.51 646.807 1233.36 649.923 1239.14 653.274C1295.6 681.724 1349.88 733.708 1358.63 802.082C1370.32 916.789 1296.76 1007.73 1229.57 1084.47C1195.62 1121.79 1159.07 1154.29 1131.38 1176.02C1103.29 1198.04 1085.9 1208.38 1083.8 1206.1C1081.84 1203.56 1095.29 1188.58 1119.92 1163.29C1144.18 1138.28 1178.04 1104.23 1210.58 1067.42C1263.07 1007.46 1312.5 939.824 1327.79 864.577C1328.52 860.554 1329.12 856.585 1329.58 852.705C1333.13 823.549 1328.95 796.471 1317.79 772.836C1315.24 767.41 1312.32 762.143 1309.07 757.042Z" fill="white"/>
</svg>
