<svg width="15" height="12" viewBox="0 0 15 12" fill="none" xmlns="http://www.w3.org/2000/svg">
<path fill-rule="evenodd" clip-rule="evenodd" d="M10.265 12C9.21281 12 8.6867 11.4667 8.6867 10.9333V4.26667C8.6867 3.46667 9.21281 2.93333 10.265 2.93333H13.6847C14.4739 2.93333 15 3.46667 15 4.26667V10.9333C15 11.4667 14.4739 12 13.4217 12H10.265ZM13.4155 4.53333L13.4094 10.6667H10.265V4.53333H13.4155Z" fill="white"/>
<path fill-rule="evenodd" clip-rule="evenodd" d="M3.15643 6.93333L3.16256 1.6L10.5282 1.6L10.5221 2.4L12.1004 2.40001L12.0944 1.6C12.0944 0 10.7851 0 10.7851 0H6.83933H2.89352C2.89352 0 1.57233 0 1.57824 1.6L1.57233 6.93333L0 6.93333C-7.42397e-06 8 0.262974 8.53333 1.3273 8.53333L8 8.53333V6.93333H3.15643Z" fill="white"/>
</svg>
