<svg width="14" height="14" viewBox="0 0 14 14" fill="none" xmlns="http://www.w3.org/2000/svg">
<g clip-path="url(#clip0_1613_55)">
<path d="M7 14C10.866 14 14 10.866 14 7C14 3.13401 10.866 0 7 0C3.13401 0 0 3.13401 0 7C0 10.866 3.13401 14 7 14Z" fill="#5C2D91"/>
<path opacity="0.1" d="M2.14812 1.96875C1.43652 2.60287 0.861911 3.37563 0.459525 4.23967C0.0571379 5.10371 -0.164553 6.04082 -0.19196 6.99357C-0.219367 7.94632 -0.0519122 8.89462 0.30014 9.78037C0.652192 10.6661 1.18142 11.4706 1.8554 12.1446C2.52937 12.8186 3.33388 13.3478 4.21963 13.6999C5.10537 14.0519 6.05368 14.2194 7.00642 14.192C7.95917 14.1645 8.89629 13.9429 9.76033 13.5405C10.6244 13.1381 11.3971 12.5635 12.0312 11.8519L2.14812 1.96875Z" fill="white"/>
<path d="M1.61874 8.14842C1.5779 8.14907 1.53738 8.14123 1.49973 8.12542C1.46208 8.10961 1.42811 8.08615 1.39999 8.05655C1.37109 8.028 1.34825 7.99391 1.33284 7.95632C1.31743 7.91873 1.30976 7.87842 1.3103 7.8378C1.31001 7.79721 1.31779 7.75697 1.33318 7.71942C1.34858 7.68187 1.37129 7.64775 1.39999 7.61905C1.42784 7.58894 1.4617 7.56501 1.49938 7.5488C1.53706 7.5326 1.57772 7.52449 1.61874 7.52499C1.65969 7.52488 1.70023 7.53318 1.73785 7.54936C1.77548 7.56554 1.80939 7.58925 1.83749 7.61905C1.86668 7.64749 1.88986 7.68151 1.90564 7.71909C1.92142 7.75667 1.92949 7.79704 1.92936 7.8378C1.92974 7.87859 1.92179 7.91904 1.90599 7.95665C1.8902 7.99427 1.86688 8.02826 1.83749 8.05655C1.80912 8.08584 1.77511 8.10909 1.73752 8.12488C1.69992 8.14067 1.65951 8.14868 1.61874 8.14842Z" fill="white"/>
<path d="M5.96531 8.09377H5.39218L3.3425 4.91314C3.29144 4.83478 3.24891 4.75118 3.21562 4.66377H3.19812C3.2176 4.84537 3.22491 5.02807 3.22 5.21064V8.09377H2.75406V4.10596H3.36L5.355 7.22971C5.43812 7.3595 5.49208 7.44846 5.51687 7.49658H5.52781C5.50473 7.30206 5.49522 7.10617 5.49937 6.91033V4.10596H5.96531V8.09377Z" fill="white"/>
<path d="M9.11969 8.09377H7V4.10596H9.02125V4.52814H7.47688V5.85377H8.91625V6.27377H7.47688V7.65627H9.12188L9.11969 8.09377Z" fill="white"/>
<path d="M12.25 4.52814H11.0906V8.09377H10.6247V4.52814H9.47842V4.10596H12.25V4.52814Z" fill="white"/>
<path d="M5.71374 10.8063C5.55581 10.8827 5.38161 10.9195 5.20624 10.9134C5.08971 10.9187 4.9734 10.899 4.86512 10.8556C4.75684 10.8122 4.65909 10.7461 4.57843 10.6619C4.41769 10.482 4.33301 10.2467 4.34218 10.0056C4.33629 9.8751 4.35669 9.74471 4.40216 9.62221C4.44763 9.49971 4.51724 9.38759 4.60686 9.29251C4.69421 9.20303 4.79921 9.13271 4.9152 9.08601C5.0312 9.03931 5.15564 9.01726 5.28061 9.02126C5.43018 9.01615 5.57917 9.04222 5.71811 9.09782V9.31657C5.58434 9.24251 5.4335 9.2048 5.28061 9.2072C5.18423 9.20448 5.08839 9.22262 4.99967 9.26038C4.91095 9.29813 4.83143 9.35461 4.76655 9.42595C4.63013 9.58137 4.55952 9.78377 4.56968 9.99032C4.55946 10.186 4.6253 10.378 4.75343 10.5263C4.81488 10.5923 4.88991 10.6443 4.97335 10.6787C5.0568 10.7131 5.14669 10.729 5.23686 10.7253C5.40482 10.7297 5.57069 10.6873 5.71593 10.6028L5.71374 10.8063Z" fill="#F2F2F2"/>
<path d="M6.60842 10.9134C6.52135 10.9162 6.43468 10.9003 6.35429 10.8667C6.2739 10.8331 6.20167 10.7827 6.14249 10.7187C6.02287 10.5852 5.96077 10.4099 5.96967 10.2309C5.96421 10.1371 5.97745 10.0432 6.00862 9.95456C6.03979 9.86593 6.08827 9.78439 6.15124 9.71466C6.2155 9.65194 6.29195 9.60308 6.37586 9.5711C6.45977 9.53912 6.54934 9.5247 6.63905 9.52873C6.72384 9.52421 6.80861 9.5381 6.88753 9.56944C6.96644 9.60078 7.03764 9.64883 7.09624 9.71029C7.2125 9.8504 7.27115 10.0295 7.2603 10.2112C7.26948 10.3957 7.20585 10.5764 7.08311 10.7144C7.02281 10.7795 6.94924 10.831 6.86735 10.8654C6.78547 10.8997 6.69718 10.9161 6.60842 10.9134ZM6.62374 9.71685C6.56356 9.71432 6.5036 9.72539 6.4483 9.74926C6.393 9.77312 6.3438 9.80915 6.30436 9.85466C6.22019 9.96305 6.17822 10.0983 6.18624 10.2353C6.1786 10.3682 6.22071 10.4992 6.30436 10.6028C6.34421 10.6477 6.39354 10.6831 6.44878 10.7066C6.50401 10.73 6.56378 10.7409 6.62374 10.7384C6.68244 10.7419 6.74115 10.7318 6.79538 10.7091C6.8496 10.6863 6.89789 10.6515 6.93655 10.6072C7.01608 10.4985 7.0548 10.3653 7.04592 10.2309C7.05457 10.0959 7.0159 9.96207 6.93655 9.85248C6.89843 9.80724 6.85035 9.77145 6.79608 9.74791C6.7418 9.72438 6.68281 9.71375 6.62374 9.71685Z" fill="#F2F2F2"/>
<path d="M8.28188 9.7825C8.23463 9.75155 8.17853 9.73695 8.12219 9.74094C8.07812 9.74254 8.03512 9.75495 7.99698 9.77708C7.95883 9.7992 7.92671 9.83036 7.90344 9.86782C7.83833 9.9709 7.80698 10.0917 7.81375 10.2134V10.8828H7.595V9.57032H7.81375V9.84375C7.8378 9.75915 7.88563 9.68322 7.95156 9.625C8.00861 9.57549 8.08165 9.5483 8.15719 9.54844C8.19947 9.54654 8.24175 9.55247 8.28188 9.56594V9.7825Z" fill="#F2F2F2"/>
<path d="M9.56374 10.2813H8.63842C8.63222 10.4036 8.67202 10.5237 8.74999 10.6181C8.79053 10.6586 8.83916 10.69 8.89269 10.7104C8.94622 10.7307 9.00344 10.7395 9.06061 10.7363C9.2089 10.7348 9.35232 10.6831 9.46749 10.5897V10.7866C9.33224 10.8757 9.17208 10.9194 9.0103 10.9113C8.92867 10.9154 8.84714 10.9014 8.77152 10.8704C8.69589 10.8394 8.62804 10.7921 8.5728 10.7319C8.45892 10.5898 8.40199 10.4105 8.41311 10.2288C8.40525 10.0466 8.46704 9.86827 8.58592 9.73002C8.64003 9.66752 8.70735 9.61783 8.78301 9.58453C8.85868 9.55124 8.94079 9.53518 9.02342 9.53752C9.09804 9.53334 9.17262 9.54613 9.24158 9.57492C9.31054 9.60372 9.37207 9.64777 9.42155 9.70377C9.52227 9.83658 9.57195 10.0012 9.56155 10.1675L9.56374 10.2813ZM9.34499 10.1041C9.34942 10.0027 9.31849 9.90296 9.25749 9.82189C9.22755 9.78807 9.19036 9.76146 9.1487 9.74403C9.10703 9.72661 9.06196 9.71882 9.01686 9.72127C8.96979 9.72069 8.92311 9.72992 8.8798 9.74838C8.83649 9.76683 8.79749 9.7941 8.7653 9.82846C8.6933 9.90462 8.64801 10.0021 8.63624 10.1063L9.34499 10.1041Z" fill="#F2F2F2"/>
</g>
<defs>
<clipPath id="clip0_1613_55">
<rect width="14" height="14" fill="white"/>
</clipPath>
</defs>
</svg>
