<svg width="14" height="14" viewBox="0 0 14 14" fill="none" xmlns="http://www.w3.org/2000/svg">
<path d="M8.17201 6.98945C8.17201 6.3619 7.64732 5.85309 6.99999 5.85309C6.35275 5.85309 5.82797 6.3619 5.82797 6.98945C5.82797 7.61709 6.35275 8.12586 6.99999 8.12586C7.64732 8.12586 8.17201 7.61709 8.17201 6.98945Z" fill="#53C1DE"/>
<path fill-rule="evenodd" clip-rule="evenodd" d="M10.8064 4.87974C11.0539 3.90459 11.365 2.09627 10.2683 1.48319C9.17669 0.87279 7.75618 2.04244 7.00608 2.74452C6.25818 2.04943 4.79776 0.884786 3.70196 1.49981C2.61079 2.11226 2.94728 3.8906 3.20027 4.87187C2.18239 5.15217 0.4375 5.75592 0.4375 6.98946C0.4375 8.21949 2.18057 8.87635 3.19243 9.15639C2.9385 10.1431 2.61886 11.896 3.71143 12.5071C4.81132 13.122 6.26719 11.9851 7.02424 11.2753C7.77914 11.9815 9.18601 13.1259 10.2778 12.5131C11.3731 11.8984 11.0878 10.1143 10.8348 9.12734C11.8157 8.84669 13.5625 8.20413 13.5625 6.98946C13.5625 5.76778 11.8083 5.15913 10.8064 4.87974ZM10.6821 8.60431C10.516 8.09445 10.2918 7.55226 10.0175 6.99217C10.2793 6.44529 10.4948 5.9101 10.6563 5.40352C11.3907 5.60997 13.0018 6.08182 13.0018 6.98946C13.0018 7.90562 11.4558 8.38193 10.6821 8.60431ZM9.99688 12.0426C9.18225 12.4998 7.97217 11.4054 7.41466 10.8854C7.78452 10.4932 8.15412 10.0372 8.51484 9.53089C9.14939 9.47634 9.74881 9.38709 10.2925 9.26524C10.4705 9.96336 10.8151 11.5834 9.99688 12.0426ZM3.99158 12.0361C3.17688 11.5806 3.54925 10.0164 3.73606 9.28957C4.27365 9.40489 4.86876 9.48784 5.5048 9.53785C5.86788 10.0333 6.2482 10.4887 6.63145 10.8875C6.15794 11.3316 4.81009 12.4937 3.99158 12.0361ZM0.998152 6.98946C0.998152 6.06987 2.59966 5.60144 3.35083 5.39551C3.5151 5.91347 3.73054 6.45505 3.99054 7.00271C3.72717 7.55851 3.50865 8.10867 3.34287 8.63275C2.62661 8.43395 0.998152 7.90961 0.998152 6.98946ZM3.98287 1.9703C4.80091 1.51119 6.07018 2.6293 6.61321 3.13256C6.23193 3.52955 5.85511 3.98151 5.49513 4.47409C4.87786 4.52957 4.28695 4.61864 3.74373 4.73799C3.53992 3.94656 3.16571 2.42891 3.98287 1.9703ZM8.91594 5.06498C9.33472 5.11621 9.73595 5.18437 10.1127 5.26776C9.99959 5.61925 9.85862 5.98679 9.69259 6.36357C9.45192 5.92082 9.19358 5.48695 8.91594 5.06498ZM7.00626 3.52104C7.26486 3.79267 7.52386 4.09601 7.77866 4.42509C7.26184 4.40138 6.74419 4.40129 6.22738 4.42474C6.48239 4.09871 6.74362 3.79583 7.00626 3.52104ZM4.31222 6.36317C4.14894 5.98771 4.00924 5.61855 3.89516 5.26203C4.26964 5.18079 4.669 5.11437 5.08506 5.06397C4.80664 5.48502 4.54873 5.91872 4.31222 6.36317ZM5.09701 8.95374C4.66721 8.90724 4.2618 8.84419 3.88743 8.76518C4.00332 8.40241 4.14609 8.02528 4.31286 7.64172C4.55262 8.09082 4.81447 8.52871 5.09701 8.95374ZM7.02179 10.4963C6.75605 10.2182 6.49097 9.91073 6.2321 9.57998C6.75185 9.59976 7.27261 9.5998 7.79231 9.57731C7.53673 9.9141 7.27864 10.2221 7.02179 10.4963ZM9.69793 7.62221C9.87337 8.00992 10.0212 8.38499 10.1387 8.74164C9.75813 8.82586 9.34727 8.89367 8.91437 8.94403C9.19406 8.51406 9.45652 8.07345 9.69793 7.62221ZM8.20194 9.00992C7.40692 9.065 6.60695 9.06439 5.81166 9.01442C5.35977 8.37441 4.95749 7.70131 4.61024 7.00254C4.95582 6.30521 5.35518 5.63342 5.80493 4.99441C6.60078 4.93609 7.40154 4.93592 8.19739 4.99476C8.64329 5.63373 9.04203 6.30376 9.39562 6.99479C9.04623 7.69177 8.64478 8.36491 8.20194 9.00992ZM9.98826 1.95414C10.8065 2.41174 10.4423 4.03693 10.2635 4.74364C9.71902 4.62179 9.12769 4.53114 8.50863 4.47479C8.14796 3.97689 7.77429 3.52414 7.39917 3.13228C7.94916 2.61818 9.17792 1.50101 9.98826 1.95414Z" fill="#53C1DE"/>
</svg>
