<svg width="14" height="8" viewBox="0 0 14 8" fill="none" xmlns="http://www.w3.org/2000/svg">
<path fill-rule="evenodd" clip-rule="evenodd" d="M7 0C5.1331 0 3.9669 0.888665 3.5 2.66667C4.2 1.778 5.0169 1.44467 5.95 1.66667C6.4827 1.79343 6.8635 2.16164 7.2842 2.56875C7.9709 3.23206 8.7654 4 10.5 4C12.3669 4 13.5331 3.11133 14 1.33333C13.3 2.222 12.4838 2.55533 11.55 2.33333C11.0173 2.20657 10.6365 1.83836 10.2151 1.43125C9.5291 0.76727 8.7353 0 7 0ZM3.5 4C1.6331 4 0.4669 4.88866 0 6.66667C0.7 5.77733 1.5169 5.44467 2.45 5.66667C2.9827 5.79343 3.3635 6.16164 3.7849 6.56875C4.4709 7.23206 5.2654 8 7.0007 8C8.8676 8 10.0338 7.11133 10.5007 5.33333C9.8007 6.222 8.9838 6.55533 8.0507 6.33333C7.518 6.20657 7.1372 5.83836 6.7165 5.43125C6.0291 4.76794 5.2346 4 3.5 4Z" fill="url(#paint0_linear_1646_24)"/>
<defs>
<linearGradient id="paint0_linear_1646_24" x1="2.5" y1="3" x2="9.5" y2="6" gradientUnits="userSpaceOnUse">
<stop stop-color="#38BDF8"/>
<stop offset="1" stop-color="#12C9B7"/>
</linearGradient>
</defs>
</svg>
