<svg width="14" height="14" viewBox="0 0 14 14" fill="none" xmlns="http://www.w3.org/2000/svg">
<g clip-path="url(#clip0_1602_36)">
<path d="M12.6327 0H1.36733H0V12.6327V14H14V12.6327V0H12.6327ZM8.12117 7.76767H6.36533V12.7692H4.97408V7.76767H3.22642V6.64417H8.12117V7.76767ZM12.6572 11.8825C12.3847 12.3696 11.8842 12.6437 11.3517 12.7575C10.7333 12.8893 10.0759 12.8823 9.45583 12.7662C9.15192 12.7091 8.88883 12.6239 8.66658 12.5096V11.1405C8.91508 11.3487 9.18458 11.5051 9.47567 11.6089C9.76675 11.7133 10.0607 11.7653 10.3571 11.7653C10.6196 11.7653 10.9118 11.7326 11.1382 11.5879C11.2933 11.4887 11.3972 11.3324 11.3972 11.1452C11.3972 10.8902 11.2128 10.6977 11.0139 10.5636C10.7228 10.3676 10.3886 10.2398 10.066 10.1057C9.5865 9.90617 9.2295 9.66233 8.99383 9.37417C8.58433 8.87308 8.51725 8.07275 8.83342 7.50692C9.1035 7.02392 9.60108 6.73925 10.1261 6.61267C10.6983 6.475 11.3196 6.475 11.9 6.56542C12.1467 6.60392 12.3742 6.66283 12.5825 6.74275V8.022C12.4798 7.95083 12.3678 7.88783 12.2465 7.83417C12.0073 7.72742 11.7489 7.65508 11.4893 7.62008C11.2297 7.58508 10.9562 7.57925 10.7001 7.63933C10.4982 7.686 10.2859 7.77992 10.1692 7.96017C10.1208 8.036 10.0963 8.12058 10.0963 8.2145C10.0963 8.31717 10.1232 8.40933 10.1774 8.49042C10.3145 8.69633 10.556 8.82875 10.7724 8.9355C11.1527 9.12217 11.5518 9.26217 11.9169 9.47858C12.2716 9.688 12.5866 9.97967 12.7406 10.3682C12.8147 10.5548 12.852 10.7724 12.852 11.0203C12.8514 11.3627 12.7867 11.6503 12.6572 11.8825Z" fill="#00639B"/>
</g>
<defs>
<clipPath id="clip0_1602_36">
<rect width="14" height="14" fill="white"/>
</clipPath>
</defs>
</svg>
